<svg width="24" height="24" viewBox="0 0 24 24" fill="none" xmlns="http://www.w3.org/2000/svg">
<rect width="24" height="24" rx="12" fill="#CCFBEF"/>
<g clip-path="url(#clip0_27_51195)">
<path d="M12 9V17M12 9H10.2321C9.97166 9 9.72185 8.89464 9.53766 8.70711C9.35348 8.51957 9.25 8.26522 9.25 8C9.25 7.73478 9.35348 7.48043 9.53766 7.29289C9.72185 7.10536 9.97166 7 10.2321 7C11.6071 7 12 9 12 9ZM12 9H13.7679C14.0283 9 14.2781 8.89464 14.4623 8.70711C14.6465 8.51957 14.75 8.26522 14.75 8C14.75 7.73478 14.6465 7.48043 14.4623 7.29289C14.2781 7.10536 14.0283 7 13.7679 7C12.3929 7 12 9 12 9ZM16 11.5V15.4C16 15.9601 16 16.2401 15.891 16.454C15.7951 16.6422 15.6422 16.7951 15.454 16.891C15.2401 17 14.9601 17 14.4 17L9.6 17C9.03995 17 8.75992 17 8.54601 16.891C8.35785 16.7951 8.20487 16.6422 8.10899 16.454C8 16.2401 8 15.9601 8 15.4V11.5M7 9.8L7 10.7C7 10.98 7 11.12 7.0545 11.227C7.10243 11.3211 7.17892 11.3976 7.273 11.4455C7.37996 11.5 7.51997 11.5 7.8 11.5L16.2 11.5C16.48 11.5 16.62 11.5 16.727 11.4455C16.8211 11.3976 16.8976 11.3211 16.9455 11.227C17 11.12 17 10.98 17 10.7V9.8C17 9.51997 17 9.37996 16.9455 9.27301C16.8976 9.17892 16.8211 9.10243 16.727 9.0545C16.62 9 16.48 9 16.2 9L7.8 9C7.51997 9 7.37996 9 7.273 9.0545C7.17892 9.10243 7.10243 9.17892 7.0545 9.273C7 9.37996 7 9.51997 7 9.8Z" stroke="#0E9384" stroke-linecap="round" stroke-linejoin="round"/>
</g>
<defs>
<clipPath id="clip0_27_51195">
<rect width="12" height="12" fill="white" transform="translate(6 6)"/>
</clipPath>
</defs>
</svg>
