<svg width="36" height="36" viewBox="0 0 36 36" fill="none" xmlns="http://www.w3.org/2000/svg">
<rect x="2" y="2" width="32" height="32" rx="16" fill="#F2F4F7"/>
<g clip-path="url(#clip0_9942_274833)">
<path d="M24.1335 24.6666C24.3202 24.6666 24.4135 24.6666 24.4848 24.6303C24.5475 24.5984 24.5985 24.5474 24.6305 24.4846C24.6668 24.4133 24.6668 24.32 24.6668 24.1333V17.2C24.6668 17.0133 24.6668 16.92 24.6305 16.8487C24.5985 16.7859 24.5475 16.7349 24.4848 16.703C24.4135 16.6666 24.3202 16.6666 24.1335 16.6666L22.5335 16.6666C22.3468 16.6666 22.2535 16.6666 22.1822 16.703C22.1194 16.7349 22.0685 16.7859 22.0365 16.8487C22.0002 16.92 22.0002 17.0133 22.0002 17.2V18.8C22.0002 18.9867 22.0002 19.08 21.9638 19.1513C21.9319 19.214 21.8809 19.265 21.8182 19.297C21.7469 19.3333 21.6535 19.3333 21.4668 19.3333H19.8668C19.6801 19.3333 19.5868 19.3333 19.5155 19.3696C19.4528 19.4016 19.4018 19.4526 19.3698 19.5153C19.3335 19.5866 19.3335 19.68 19.3335 19.8666V21.4666C19.3335 21.6533 19.3335 21.7467 19.2972 21.818C19.2652 21.8807 19.2142 21.9317 19.1515 21.9636C19.0802 22 18.9868 22 18.8002 22H17.2002C17.0135 22 16.9201 22 16.8488 22.0363C16.7861 22.0683 16.7351 22.1193 16.7032 22.182C16.6668 22.2533 16.6668 22.3466 16.6668 22.5333V24.1333C16.6668 24.32 16.6668 24.4133 16.7032 24.4846C16.7351 24.5474 16.7861 24.5984 16.8488 24.6303C16.9201 24.6666 17.0135 24.6666 17.2002 24.6666L24.1335 24.6666Z" stroke="#475467" stroke-width="1.33333" stroke-linecap="round" stroke-linejoin="round"/>
<path d="M16.6668 14.5333C16.6668 14.3466 16.6668 14.2533 16.7032 14.182C16.7351 14.1193 16.7861 14.0683 16.8488 14.0363C16.9201 14 17.0135 14 17.2002 14H18.8002C18.9868 14 19.0802 14 19.1515 14.0363C19.2142 14.0683 19.2652 14.1193 19.2972 14.182C19.3335 14.2533 19.3335 14.3466 19.3335 14.5333V16.1333C19.3335 16.32 19.3335 16.4133 19.2972 16.4846C19.2652 16.5474 19.2142 16.5984 19.1515 16.6303C19.0802 16.6666 18.9868 16.6666 18.8002 16.6666H17.2002C17.0135 16.6666 16.9201 16.6666 16.8488 16.6303C16.7861 16.5984 16.7351 16.5474 16.7032 16.4846C16.6668 16.4133 16.6668 16.32 16.6668 16.1333V14.5333Z" stroke="#475467" stroke-width="1.33333" stroke-linecap="round" stroke-linejoin="round"/>
<path d="M12.0002 18.5333C12.0002 18.3466 12.0002 18.2533 12.0365 18.182C12.0685 18.1193 12.1194 18.0683 12.1822 18.0363C12.2535 18 12.3468 18 12.5335 18H14.1335C14.3202 18 14.4135 18 14.4848 18.0363C14.5475 18.0683 14.5985 18.1193 14.6305 18.182C14.6668 18.2533 14.6668 18.3466 14.6668 18.5333V20.1333C14.6668 20.32 14.6668 20.4133 14.6305 20.4846C14.5985 20.5474 14.5475 20.5984 14.4848 20.6303C14.4135 20.6666 14.3202 20.6666 14.1335 20.6666H12.5335C12.3468 20.6666 12.2535 20.6666 12.1822 20.6303C12.1194 20.5984 12.0685 20.5474 12.0365 20.4846C12.0002 20.4133 12.0002 20.32 12.0002 20.1333V18.5333Z" stroke="#475467" stroke-width="1.33333" stroke-linecap="round" stroke-linejoin="round"/>
<path d="M11.3335 11.8666C11.3335 11.68 11.3335 11.5866 11.3698 11.5153C11.4018 11.4526 11.4528 11.4016 11.5155 11.3696C11.5868 11.3333 11.6801 11.3333 11.8668 11.3333H13.4668C13.6535 11.3333 13.7469 11.3333 13.8182 11.3696C13.8809 11.4016 13.9319 11.4526 13.9638 11.5153C14.0002 11.5866 14.0002 11.68 14.0002 11.8666V13.4666C14.0002 13.6533 14.0002 13.7467 13.9638 13.818C13.9319 13.8807 13.8809 13.9317 13.8182 13.9636C13.7469 14 13.6535 14 13.4668 14H11.8668C11.6801 14 11.5868 14 11.5155 13.9636C11.4528 13.9317 11.4018 13.8807 11.3698 13.818C11.3335 13.7467 11.3335 13.6533 11.3335 13.4666V11.8666Z" stroke="#475467" stroke-width="1.33333" stroke-linecap="round" stroke-linejoin="round"/>
</g>
<rect x="2" y="2" width="32" height="32" rx="16" stroke="#F9FAFB" stroke-width="4"/>
<defs>
<clipPath id="clip0_9942_274833">
<rect width="16" height="16" fill="white" transform="translate(10 10)"/>
</clipPath>
</defs>
</svg>
