<svg width="36" height="36" viewBox="0 0 36 36" fill="none" xmlns="http://www.w3.org/2000/svg">
<rect x="2" y="2" width="32" height="32" rx="16" fill="#F2F4F7"/>
<path fill-rule="evenodd" clip-rule="evenodd" d="M10 19.5918V17.7143L17.9998 22.4081L21.1999 20.5306V22.4081L17.9998 24.2857L10 19.5918ZM14.7998 16.7755L17.9998 14.8979L26 19.5918V21.4694L21.1999 18.653L17.9998 20.5306L14.7998 18.653L10 15.8367V13.9591L14.7998 16.7755ZM16.3998 17.7143L17.9998 18.653L19.5999 17.7143L17.9998 16.7755L16.3998 17.7143ZM26 15.8367V17.7143L17.9998 13.0204L14.7998 14.8979V13.0204L17.9998 11.1428L26 15.8367Z" fill="#475467"/>
<rect x="2" y="2" width="32" height="32" rx="16" stroke="#F9FAFB" stroke-width="4"/>
</svg>
