<svg width="36" height="36" viewBox="0 0 36 36" fill="none" xmlns="http://www.w3.org/2000/svg">
<rect x="2" y="2" width="32" height="32" rx="16" fill="#F2F4F7"/>
<path d="M17.9998 11.6667V24.3333M23.3332 18C23.3332 21.2723 19.7639 23.6523 18.4652 24.4099C18.3176 24.496 18.2438 24.5391 18.1396 24.5614C18.0588 24.5787 17.9409 24.5787 17.8601 24.5614C17.7559 24.5391 17.6821 24.496 17.5345 24.4099C16.2358 23.6523 12.6665 21.2723 12.6665 18V14.8117C12.6665 14.2787 12.6665 14.0122 12.7537 13.7831C12.8307 13.5808 12.9558 13.4002 13.1183 13.257C13.3022 13.095 13.5517 13.0014 14.0508 12.8142L17.6253 11.4738C17.7639 11.4218 17.8332 11.3958 17.9045 11.3855C17.9677 11.3764 18.0319 11.3764 18.0952 11.3855C18.1665 11.3958 18.2358 11.4218 18.3744 11.4738L21.9489 12.8142C22.448 13.0014 22.6975 13.095 22.8814 13.257C23.0438 13.4002 23.169 13.5808 23.246 13.7831C23.3332 14.0122 23.3332 14.2787 23.3332 14.8117V18Z" stroke="#475467" stroke-width="1.33333" stroke-linecap="round" stroke-linejoin="round"/>
<rect x="2" y="2" width="32" height="32" rx="16" stroke="#F9FAFB" stroke-width="4"/>
</svg>
