<svg width="24" height="24" viewBox="0 0 24 24" fill="none" xmlns="http://www.w3.org/2000/svg">
<rect width="24" height="24" rx="12" fill="#CCFBEF"/>
<g clip-path="url(#clip0_27_51206)">
<path d="M10 13C10 13 10.75 14 12 14C13.25 14 14 13 14 13M13.5 10.5H13.505M10.5 10.5H10.505M17 12C17 14.7614 14.7614 17 12 17C9.23858 17 7 14.7614 7 12C7 9.23858 9.23858 7 12 7C14.7614 7 17 9.23858 17 12ZM13.75 10.5C13.75 10.6381 13.6381 10.75 13.5 10.75C13.3619 10.75 13.25 10.6381 13.25 10.5C13.25 10.3619 13.3619 10.25 13.5 10.25C13.6381 10.25 13.75 10.3619 13.75 10.5ZM10.75 10.5C10.75 10.6381 10.6381 10.75 10.5 10.75C10.3619 10.75 10.25 10.6381 10.25 10.5C10.25 10.3619 10.3619 10.25 10.5 10.25C10.6381 10.25 10.75 10.3619 10.75 10.5Z" stroke="#0E9384" stroke-linecap="round" stroke-linejoin="round"/>
</g>
<defs>
<clipPath id="clip0_27_51206">
<rect width="12" height="12" fill="white" transform="translate(6 6)"/>
</clipPath>
</defs>
</svg>
