<svg width="36" height="36" viewBox="0 0 36 36" fill="none" xmlns="http://www.w3.org/2000/svg">
<rect x="2" y="2" width="32" height="32" rx="16" fill="#F2F4F7"/>
<g clip-path="url(#clip0_9942_274857)">
<path d="M20.6668 15.3333L11.3335 24.6667M22.0002 20H16.0002M14.4002 22.6667H18.8917C19.0547 22.6667 19.1363 22.6667 19.213 22.6483C19.281 22.6319 19.346 22.605 19.4057 22.5684C19.473 22.5272 19.5306 22.4696 19.6459 22.3543L23.0002 19C23.1595 18.8407 23.2391 18.761 23.3032 18.6905C24.69 17.1649 24.69 14.8351 23.3032 13.3095C23.2391 13.239 23.1595 13.1593 23.0002 13C22.8409 12.8407 22.7612 12.761 22.6907 12.6969C21.165 11.3102 18.8353 11.3102 17.3096 12.6969C17.2391 12.761 17.1595 12.8407 17.0002 13L13.6459 16.3543C13.5306 16.4696 13.473 16.5272 13.4317 16.5945C13.3952 16.6541 13.3682 16.7192 13.3519 16.7872C13.3335 16.8639 13.3335 16.9454 13.3335 17.1085V21.6C13.3335 21.9734 13.3335 22.1601 13.4062 22.3027C13.4701 22.4281 13.5721 22.5301 13.6975 22.594C13.8401 22.6667 14.0268 22.6667 14.4002 22.6667Z" stroke="#475467" stroke-width="1.33333" stroke-linecap="round" stroke-linejoin="round"/>
</g>
<rect x="2" y="2" width="32" height="32" rx="16" stroke="#F9FAFB" stroke-width="4"/>
<defs>
<clipPath id="clip0_9942_274857">
<rect width="16" height="16" fill="white" transform="translate(10 10)"/>
</clipPath>
</defs>
</svg>
