<svg width="12" height="12" viewBox="0 0 12 12" fill="none" xmlns="http://www.w3.org/2000/svg">
<g clip-path="url(#clip0_501_11929)">
<path d="M6 3V11M6 3H4.23214C3.97166 3 3.72185 2.89464 3.53766 2.70711C3.35348 2.51957 3.25 2.26522 3.25 2C3.25 1.73478 3.35348 1.48043 3.53766 1.29289C3.72185 1.10536 3.97166 1 4.23214 1C5.60714 1 6 3 6 3ZM6 3H7.76786C8.02834 3 8.27815 2.89464 8.46234 2.70711C8.64652 2.51957 8.75 2.26522 8.75 2C8.75 1.73478 8.64652 1.48043 8.46234 1.29289C8.27815 1.10536 8.02834 1 7.76786 1C6.39286 1 6 3 6 3ZM10 5.5V9.4C10 9.96005 10 10.2401 9.89101 10.454C9.79513 10.6422 9.64215 10.7951 9.45399 10.891C9.24008 11 8.96005 11 8.4 11L3.6 11C3.03995 11 2.75992 11 2.54601 10.891C2.35785 10.7951 2.20487 10.6422 2.10899 10.454C2 10.2401 2 9.96005 2 9.4V5.5M1 3.8L1 4.7C1 4.98003 1 5.12004 1.0545 5.22699C1.10243 5.32108 1.17892 5.39757 1.273 5.4455C1.37996 5.5 1.51997 5.5 1.8 5.5L10.2 5.5C10.48 5.5 10.62 5.5 10.727 5.4455C10.8211 5.39757 10.8976 5.32108 10.9455 5.227C11 5.12004 11 4.98003 11 4.7V3.8C11 3.51997 11 3.37996 10.9455 3.27301C10.8976 3.17892 10.8211 3.10243 10.727 3.0545C10.62 3 10.48 3 10.2 3L1.8 3C1.51997 3 1.37996 3 1.273 3.0545C1.17892 3.10243 1.10243 3.17892 1.0545 3.273C1 3.37996 1 3.51997 1 3.8Z" stroke="#0E9384" stroke-linecap="round" stroke-linejoin="round"/>
</g>
<defs>
<clipPath id="clip0_501_11929">
<rect width="12" height="12" fill="white"/>
</clipPath>
</defs>
</svg>
