<svg width="20" height="20" viewBox="0 0 20 20" fill="none" xmlns="http://www.w3.org/2000/svg">
<g clip-path="url(#clip0_9942_274491)">
<path d="M7.57484 7.50002C7.77076 6.94308 8.15746 6.47344 8.66647 6.1743C9.17547 5.87515 9.77392 5.7658 10.3558 5.86561C10.9377 5.96543 11.4655 6.26796 11.8457 6.71963C12.226 7.1713 12.4341 7.74296 12.4332 8.33335C12.4332 10 9.93317 10.8334 9.93317 10.8334M9.99984 14.1667H10.0082M18.3332 10C18.3332 14.6024 14.6022 18.3334 9.99984 18.3334C5.39746 18.3334 1.6665 14.6024 1.6665 10C1.6665 5.39765 5.39746 1.66669 9.99984 1.66669C14.6022 1.66669 18.3332 5.39765 18.3332 10Z" stroke="#475467" stroke-width="1.66667" stroke-linecap="round" stroke-linejoin="round"/>
</g>
<defs>
<clipPath id="clip0_9942_274491">
<rect width="20" height="20" fill="white"/>
</clipPath>
</defs>
</svg>
