<svg width="154" height="158" viewBox="0 0 154 158" fill="none" xmlns="http://www.w3.org/2000/svg">
<g filter="url(#filter0_d_54_20543)">
<rect x="13" y="5.56836" width="128" height="131.864" rx="64" fill="url(#paint0_linear_54_20543)" fill-opacity="0.12"/>
<g filter="url(#filter1_b_54_20543)">
<path d="M125.001 71.5914C125.001 98.8487 103.51 120.945 77.0006 120.945C70.6158 120.945 64.5222 119.663 58.9498 117.337C57.8833 116.891 57.3501 116.669 56.919 116.569C56.4974 116.472 56.1853 116.436 55.7532 116.436C55.3115 116.436 54.8303 116.519 53.868 116.684L34.8926 119.936C32.9055 120.276 31.9119 120.446 31.1935 120.129C30.5647 119.852 30.0636 119.337 29.7939 118.69C29.4857 117.952 29.6513 116.93 29.9825 114.887L33.1451 95.3764C33.3055 94.3869 33.3857 93.8922 33.3856 93.438C33.3855 92.9937 33.351 92.6728 33.2565 92.2393C33.1599 91.7961 32.9433 91.2478 32.5102 90.1512C30.2471 84.4217 29.0005 78.1562 29.0005 71.5914C29.0005 44.334 50.4909 22.2375 77.0006 22.2375C103.51 22.2375 125.001 44.334 125.001 71.5914Z" fill="url(#paint1_linear_54_20543)"/>
<path d="M125.001 71.5914C125.001 98.8487 103.51 120.945 77.0006 120.945C70.6158 120.945 64.5222 119.663 58.9498 117.337C57.8833 116.891 57.3501 116.669 56.919 116.569C56.4974 116.472 56.1853 116.436 55.7532 116.436C55.3115 116.436 54.8303 116.519 53.868 116.684L34.8926 119.936C32.9055 120.276 31.9119 120.446 31.1935 120.129C30.5647 119.852 30.0636 119.337 29.7939 118.69C29.4857 117.952 29.6513 116.93 29.9825 114.887L33.1451 95.3764C33.3055 94.3869 33.3857 93.8922 33.3856 93.438C33.3855 92.9937 33.351 92.6728 33.2565 92.2393C33.1599 91.7961 32.9433 91.2478 32.5102 90.1512C30.2471 84.4217 29.0005 78.1562 29.0005 71.5914C29.0005 44.334 50.4909 22.2375 77.0006 22.2375C103.51 22.2375 125.001 44.334 125.001 71.5914Z" stroke="#2ED3B7" stroke-width="6.01549" stroke-linecap="round" stroke-linejoin="round"/>
</g>
<path d="M89.8438 71.5983C79.6143 60.5931 69.6115 53.9622 63.6939 52.4481C53.7527 52.0372 45.3691 59.9744 44.9687 70.1763C44.5682 80.3783 52.3025 88.9818 62.2438 89.3928C70.5256 89.3928 77.6123 83.5168 89.8438 71.5983Z" fill="#CCFBEF"/>
<path fill-rule="evenodd" clip-rule="evenodd" d="M97.3999 71.7901L93.7066 67.8168C88.3709 62.0765 83.0427 57.4198 78.1982 53.9651C73.443 50.5741 68.8466 48.1203 64.9854 47.1324L64.455 46.9967L63.9088 46.9741C51.0216 46.4413 40.1536 56.7306 39.6345 69.9558C39.1154 83.181 49.1417 94.334 62.0289 94.8667L62.1363 94.8712H62.2437C67.7661 94.8712 72.6291 92.8635 77.5187 89.5269C82.2901 86.2708 87.4281 81.5067 93.5196 75.5711L97.3999 71.7901ZM89.8434 71.5986C88.485 72.9223 87.19 74.1714 85.9499 75.3462C76.0233 84.7495 69.6058 89.3928 62.2438 89.3928C52.3025 88.9818 44.5682 80.3783 44.9687 70.1763C45.3691 59.9744 53.7527 52.0372 63.6939 52.4481C68.8804 53.7752 77.205 59.0327 86.0699 67.7209C87.3194 68.9455 88.5797 70.2383 89.8434 71.5978L89.8438 71.5983L89.8434 71.5986Z" fill="#F0FDF9"/>
<path d="M77.0009 83.2112C63.8652 72.932 58.9861 67.2988 58.9861 57.0885C58.9861 46.8783 67.0516 38.6012 77.0009 38.6012C86.9502 38.6012 95.0157 46.8783 95.0157 57.0885C95.0157 67.2988 89.9084 72.7824 77.0009 83.2112Z" fill="#5FE9D0"/>
<path fill-rule="evenodd" clip-rule="evenodd" d="M77.0531 90.1417L73.7638 87.5677C67.201 82.432 62.1363 78.0434 58.776 73.3824C55.1961 68.4168 53.6477 63.299 53.6477 57.0886C53.6477 43.8526 64.1033 33.1228 77.0009 33.1228C89.8985 33.1228 100.354 43.8526 100.354 57.0886C100.354 63.3585 98.7145 68.4406 95.1178 73.3571C91.7527 77.9571 86.7127 82.3371 80.3032 87.5157L77.0531 90.1417ZM58.9861 57.0885C58.9861 67.2988 63.8652 72.932 77.0009 83.2112C89.9084 72.7824 95.0157 67.2988 95.0157 57.0885C95.0157 46.8783 86.9502 38.6012 77.0009 38.6012C67.0516 38.6012 58.9861 46.8783 58.9861 57.0885Z" fill="#F0FDF9"/>
<path d="M77.0008 59.7897C63.688 70.5678 58.986 75.7022 58.986 85.9124C58.986 96.1227 67.0515 104.4 77.0008 104.4C86.9501 104.4 95.0156 96.1227 95.0156 85.9124C95.0156 75.7022 90.1833 70.5678 77.0008 59.7897Z" fill="#5FE9D0"/>
<path fill-rule="evenodd" clip-rule="evenodd" d="M77.0171 52.7984L73.6943 55.4886C67.098 60.8289 62.0426 65.2193 58.7218 69.7886C55.1444 74.7109 53.6475 79.716 53.6475 85.9124C53.6475 99.1483 64.1031 109.878 77.0008 109.878C89.8984 109.878 100.354 99.1483 100.354 85.9124C100.354 79.6858 98.8077 74.682 95.2221 69.7766C91.8939 65.2233 86.8483 60.8365 80.3273 55.5048L77.0171 52.7984ZM58.986 85.9124C58.986 75.7022 63.688 70.5678 77.0008 59.7897C90.1833 70.5678 95.0156 75.7022 95.0156 85.9124C95.0156 96.1227 86.9501 104.4 77.0008 104.4C67.0515 104.4 58.986 96.1227 58.986 85.9124Z" fill="#F0FDF9"/>
<path d="M64.3704 71.7232C75.8273 58.0897 86.0653 53.6083 91.7581 53.6083C101.699 54.0193 109.434 62.6227 109.033 72.8247C108.633 83.0267 100.249 90.9639 90.3079 90.5529C85.9807 90.3741 77.0461 84.6688 64.3704 71.7232Z" fill="url(#paint2_linear_54_20543)"/>
<path fill-rule="evenodd" clip-rule="evenodd" d="M57.0815 72.0083L60.3277 68.1454C72.233 53.9781 83.8169 48.1299 91.758 48.1299L91.8655 48.1299L91.9729 48.1343C104.86 48.6671 114.886 59.8201 114.367 73.0453C113.848 86.2705 102.98 96.5597 90.093 96.027C88.0465 95.9424 85.9638 95.2523 84.0142 94.3484C82.0028 93.4159 79.8053 92.1004 77.4511 90.4441C72.7419 87.1309 67.0878 82.2277 60.6047 75.6065L57.0815 72.0083ZM91.7581 53.6083C86.0653 53.6083 75.8273 58.0897 64.3704 71.7232C77.0461 84.6688 85.9807 90.3741 90.3079 90.5529C100.249 90.9639 108.633 83.0267 109.033 72.8247C109.434 62.6227 101.699 54.0193 91.7581 53.6083Z" fill="#F0FDF9"/>
</g>
<defs>
<filter id="filter0_d_54_20543" x="0.733115" y="0.850327" width="152.535" height="156.397" filterUnits="userSpaceOnUse" color-interpolation-filters="sRGB">
<feFlood flood-opacity="0" result="BackgroundImageFix"/>
<feColorMatrix in="SourceAlpha" type="matrix" values="0 0 0 0 0 0 0 0 0 0 0 0 0 0 0 0 0 0 127 0" result="hardAlpha"/>
<feMorphology radius="2.83082" operator="erode" in="SourceAlpha" result="effect1_dropShadow_54_20543"/>
<feOffset dy="7.54885"/>
<feGaussianBlur stdDeviation="7.54885"/>
<feColorMatrix type="matrix" values="0 0 0 0 0.0625882 0 0 0 0 0.0926346 0 0 0 0 0.15702 0 0 0 0.14 0"/>
<feBlend mode="normal" in2="BackgroundImageFix" result="effect1_dropShadow_54_20543"/>
<feBlend mode="normal" in="SourceGraphic" in2="effect1_dropShadow_54_20543" result="shape"/>
</filter>
<filter id="filter1_b_54_20543" x="-14.0073" y="-20.7703" width="182.016" height="184.723" filterUnits="userSpaceOnUse" color-interpolation-filters="sRGB">
<feFlood flood-opacity="0" result="BackgroundImageFix"/>
<feGaussianBlur in="BackgroundImageFix" stdDeviation="20"/>
<feComposite in2="SourceAlpha" operator="in" result="effect1_backgroundBlur_54_20543"/>
<feBlend mode="normal" in="SourceGraphic" in2="effect1_backgroundBlur_54_20543" result="shape"/>
</filter>
<linearGradient id="paint0_linear_54_20543" x1="116.401" y1="23.1193" x2="74.8705" y2="136.653" gradientUnits="userSpaceOnUse">
<stop offset="0.164143"/>
<stop offset="1" stop-opacity="0"/>
</linearGradient>
<linearGradient id="paint1_linear_54_20543" x1="151.131" y1="-0.410601" x2="74.2144" y2="119.153" gradientUnits="userSpaceOnUse">
<stop offset="0.205139" stop-color="#F6FEFC" stop-opacity="0.88"/>
<stop offset="1" stop-color="#F6FEFC"/>
</linearGradient>
<linearGradient id="paint2_linear_54_20543" x1="39.6148" y1="71.3721" x2="100.052" y2="41.9392" gradientUnits="userSpaceOnUse">
<stop stop-color="#53389E"/>
<stop offset="0.0001" stop-color="#125D56"/>
<stop offset="1" stop-color="#0E9384"/>
</linearGradient>
</defs>
</svg>
