<svg width="36" height="36" viewBox="0 0 36 36" fill="none" xmlns="http://www.w3.org/2000/svg">
<path d="M13.5296 17.3573C13.4778 17.0235 13.451 16.6816 13.451 16.3334C13.451 12.6515 16.4554 9.66669 20.1615 9.66669C23.8676 9.66669 26.872 12.6515 26.872 16.3334C26.872 17.1651 26.7187 17.9612 26.4386 18.6954C26.3805 18.8479 26.3514 18.9242 26.3382 18.9837C26.3251 19.0427 26.32 19.0842 26.3186 19.1446C26.3172 19.2055 26.3254 19.2727 26.342 19.407L26.6775 22.1321C26.7138 22.4271 26.7319 22.5746 26.6829 22.6819C26.6399 22.7758 26.5635 22.8505 26.4686 22.8913C26.3602 22.9379 26.2132 22.9163 25.9191 22.8732L23.2647 22.4841C23.1261 22.4638 23.0568 22.4536 22.9937 22.454C22.9313 22.4543 22.8881 22.459 22.827 22.4718C22.7652 22.4848 22.6863 22.5143 22.5285 22.5735C21.7924 22.8492 20.9947 23 20.1615 23C19.813 23 19.4707 22.9736 19.1366 22.9228M14.8107 26.3334C17.2814 26.3334 19.2843 24.2813 19.2843 21.75C19.2843 19.2187 17.2814 17.1667 14.8107 17.1667C12.3399 17.1667 10.337 19.2187 10.337 21.75C10.337 22.2588 10.4179 22.7483 10.5673 23.2056C10.6305 23.3989 10.662 23.4956 10.6724 23.5616C10.6832 23.6306 10.6851 23.6693 10.6811 23.739C10.6772 23.8057 10.6605 23.8811 10.6271 24.0319L10.1177 26.3334L12.6133 25.9925C12.7496 25.9739 12.8177 25.9646 12.8771 25.965C12.9398 25.9654 12.973 25.9688 13.0344 25.9811C13.0928 25.9927 13.1795 26.0233 13.3529 26.0845C13.8098 26.2458 14.3003 26.3334 14.8107 26.3334Z" stroke="#107569" stroke-width="2" stroke-linecap="round" stroke-linejoin="round"/>
</svg>
