<svg width="33" height="32" viewBox="0 0 33 32" fill="none" xmlns="http://www.w3.org/2000/svg">
<rect x="0.6" y="0.1" width="31.8" height="31.8" rx="7.9" fill="url(#paint0_linear_173_21581)"/>
<mask id="path-2-outside-1_173_21581" maskUnits="userSpaceOnUse" x="4.5" y="4" width="24" height="24" fill="black">
<rect fill="white" x="4.5" y="4" width="24" height="24"/>
<path d="M26.5 16C26.5 21.5228 22.0228 26 16.5 26C15.1698 26 13.9003 25.7403 12.7394 25.2688C12.5172 25.1786 12.4062 25.1335 12.3164 25.1133C12.2285 25.0936 12.1635 25.0864 12.0735 25.0864C11.9815 25.0864 11.8812 25.1031 11.6807 25.1365L7.72751 25.7954C7.31354 25.8644 7.10655 25.8989 6.95687 25.8347C6.82587 25.7785 6.72148 25.6741 6.66529 25.5431C6.60109 25.3935 6.63559 25.1865 6.70459 24.7725L7.36345 20.8193C7.39687 20.6188 7.41357 20.5186 7.41356 20.4265C7.41355 20.3365 7.40635 20.2715 7.38666 20.1836C7.36653 20.0938 7.32142 19.9828 7.23118 19.7606C6.75971 18.5997 6.5 17.3302 6.5 16C6.5 10.4772 10.9772 6 16.5 6C22.0228 6 26.5 10.4772 26.5 16Z"/>
<path d="M18.9643 15.8062C16.8331 13.5764 14.7492 12.2328 13.5164 11.926C11.4453 11.8428 9.69872 13.451 9.6153 15.5181C9.53187 17.5852 11.1432 19.3284 13.2143 19.4117C14.9397 19.4117 16.4161 18.2211 18.9643 15.8062Z"/>
<path fill-rule="evenodd" clip-rule="evenodd" d="M20.5385 15.8451L19.769 15.04C18.6574 13.8769 17.5474 12.9334 16.5381 12.2334C15.5475 11.5463 14.5899 11.0491 13.7854 10.849L13.6749 10.8215L13.5611 10.8169C10.8763 10.7089 8.61217 12.7937 8.50402 15.4734C8.39587 18.1531 10.4847 20.4129 13.1695 20.5208L13.1919 20.5217H13.2143C14.3648 20.5217 15.3779 20.1149 16.3965 19.4389C17.3906 18.7791 18.461 17.8138 19.7301 16.6112L20.5385 15.8451ZM18.9643 15.8062C18.6813 16.0744 18.4114 16.3276 18.153 16.5656C16.085 18.4709 14.748 19.4117 13.2143 19.4117C11.1432 19.3284 9.53187 17.5852 9.6153 15.5181C9.69872 13.451 11.4453 11.8428 13.5164 11.926C14.5969 12.1949 16.3312 13.2602 18.1781 15.0206C18.4384 15.2687 18.701 15.5307 18.9643 15.8062Z"/>
<path d="M16.2887 18.1592C13.5521 16.0764 12.5356 14.935 12.5356 12.8663C12.5356 10.7975 14.2159 9.1204 16.2887 9.1204C18.3614 9.1204 20.0418 10.7975 20.0418 12.8663C20.0418 14.935 18.9777 16.0461 16.2887 18.1592Z"/>
<path fill-rule="evenodd" clip-rule="evenodd" d="M16.2996 19.5634L15.6143 19.0419C14.247 18.0013 13.1919 17.1121 12.4918 16.1677C11.746 15.1616 11.4234 14.1246 11.4234 12.8663C11.4234 10.1844 13.6017 8.01037 16.2887 8.01037C18.9757 8.01037 21.1539 10.1844 21.1539 12.8663C21.1539 14.1367 20.8123 15.1664 20.063 16.1626C19.362 17.0946 18.312 17.9821 16.9767 19.0314L16.2996 19.5634ZM12.5356 12.8663C12.5356 14.935 13.5521 16.0764 16.2887 18.1592C18.9777 16.0461 20.0418 14.935 20.0418 12.8663C20.0418 10.7975 18.3614 9.1204 16.2887 9.1204C14.2159 9.1204 12.5356 10.7975 12.5356 12.8663Z"/>
<path d="M16.2887 13.4136C13.5152 15.5974 12.5356 16.6377 12.5356 18.7065C12.5356 20.7753 14.2159 22.4524 16.2887 22.4524C18.3614 22.4524 20.0417 20.7753 20.0417 18.7065C20.0417 16.6377 19.035 15.5974 16.2887 13.4136Z"/>
<path fill-rule="evenodd" clip-rule="evenodd" d="M16.292 11.997L15.5998 12.5421C14.2256 13.6241 13.1724 14.5137 12.4805 15.4395C11.7352 16.4369 11.4234 17.451 11.4234 18.7065C11.4234 21.3883 13.6016 23.5624 16.2886 23.5624C18.9757 23.5624 21.1539 21.3883 21.1539 18.7065C21.1539 17.4449 20.8318 16.431 20.0848 15.4371C19.3914 14.5145 18.3402 13.6257 16.9817 12.5454L16.292 11.997ZM12.5356 18.7065C12.5356 16.6377 13.5152 15.5974 16.2887 13.4136C19.035 15.5974 20.0417 16.6377 20.0417 18.7065C20.0417 20.7753 18.3614 22.4524 16.2887 22.4524C14.2159 22.4524 12.5356 20.7753 12.5356 18.7065Z"/>
<path d="M13.6573 15.8315C16.0442 13.0691 18.1771 12.1611 19.3631 12.1611C21.4342 12.2444 23.0455 13.9876 22.9621 16.0547C22.8786 18.1218 21.1321 19.73 19.061 19.6468C18.1595 19.6105 16.2981 18.4545 13.6573 15.8315Z"/>
<path fill-rule="evenodd" clip-rule="evenodd" d="M12.1388 15.8893L12.8151 15.1066C15.2954 12.236 17.7087 11.0511 19.3631 11.0511L19.3855 11.0511L19.4078 11.052C22.0927 11.1599 24.1815 13.4197 24.0733 16.0994C23.9652 18.7791 21.701 20.8638 19.0162 20.7559C18.5898 20.7388 18.1559 20.5989 17.7498 20.4158C17.3307 20.2269 16.8729 19.9603 16.3825 19.6247C15.4014 18.9534 14.2235 17.9599 12.8728 16.6183L12.1388 15.8893ZM19.3631 12.1611C18.1771 12.1611 16.0442 13.0691 13.6573 15.8315C16.2981 18.4545 18.1595 19.6105 19.061 19.6468C21.1321 19.73 22.8786 18.1218 22.9621 16.0547C23.0455 13.9876 21.4342 12.2444 19.3631 12.1611Z"/>
</mask>
<path d="M26.5 16C26.5 21.5228 22.0228 26 16.5 26C15.1698 26 13.9003 25.7403 12.7394 25.2688C12.5172 25.1786 12.4062 25.1335 12.3164 25.1133C12.2285 25.0936 12.1635 25.0864 12.0735 25.0864C11.9815 25.0864 11.8812 25.1031 11.6807 25.1365L7.72751 25.7954C7.31354 25.8644 7.10655 25.8989 6.95687 25.8347C6.82587 25.7785 6.72148 25.6741 6.66529 25.5431C6.60109 25.3935 6.63559 25.1865 6.70459 24.7725L7.36345 20.8193C7.39687 20.6188 7.41357 20.5186 7.41356 20.4265C7.41355 20.3365 7.40635 20.2715 7.38666 20.1836C7.36653 20.0938 7.32142 19.9828 7.23118 19.7606C6.75971 18.5997 6.5 17.3302 6.5 16C6.5 10.4772 10.9772 6 16.5 6C22.0228 6 26.5 10.4772 26.5 16Z" fill="url(#paint1_linear_173_21581)"/>
<path d="M18.9643 15.8062C16.8331 13.5764 14.7492 12.2328 13.5164 11.926C11.4453 11.8428 9.69872 13.451 9.6153 15.5181C9.53187 17.5852 11.1432 19.3284 13.2143 19.4117C14.9397 19.4117 16.4161 18.2211 18.9643 15.8062Z" fill="#CCFBEF"/>
<path fill-rule="evenodd" clip-rule="evenodd" d="M20.5385 15.8451L19.769 15.04C18.6574 13.8769 17.5474 12.9334 16.5381 12.2334C15.5475 11.5463 14.5899 11.0491 13.7854 10.849L13.6749 10.8215L13.5611 10.8169C10.8763 10.7089 8.61217 12.7937 8.50402 15.4734C8.39587 18.1531 10.4847 20.4129 13.1695 20.5208L13.1919 20.5217H13.2143C14.3648 20.5217 15.3779 20.1149 16.3965 19.4389C17.3906 18.7791 18.461 17.8138 19.7301 16.6112L20.5385 15.8451ZM18.9643 15.8062C18.6813 16.0744 18.4114 16.3276 18.153 16.5656C16.085 18.4709 14.748 19.4117 13.2143 19.4117C11.1432 19.3284 9.53187 17.5852 9.6153 15.5181C9.69872 13.451 11.4453 11.8428 13.5164 11.926C14.5969 12.1949 16.3312 13.2602 18.1781 15.0206C18.4384 15.2687 18.701 15.5307 18.9643 15.8062Z" fill="#F0FDF9"/>
<path d="M16.2887 18.1592C13.5521 16.0764 12.5356 14.935 12.5356 12.8663C12.5356 10.7975 14.2159 9.1204 16.2887 9.1204C18.3614 9.1204 20.0418 10.7975 20.0418 12.8663C20.0418 14.935 18.9777 16.0461 16.2887 18.1592Z" fill="#5FE9D0"/>
<path fill-rule="evenodd" clip-rule="evenodd" d="M16.2996 19.5634L15.6143 19.0419C14.247 18.0013 13.1919 17.1121 12.4918 16.1677C11.746 15.1616 11.4234 14.1246 11.4234 12.8663C11.4234 10.1844 13.6017 8.01037 16.2887 8.01037C18.9757 8.01037 21.1539 10.1844 21.1539 12.8663C21.1539 14.1367 20.8123 15.1664 20.063 16.1626C19.362 17.0946 18.312 17.9821 16.9767 19.0314L16.2996 19.5634ZM12.5356 12.8663C12.5356 14.935 13.5521 16.0764 16.2887 18.1592C18.9777 16.0461 20.0418 14.935 20.0418 12.8663C20.0418 10.7975 18.3614 9.1204 16.2887 9.1204C14.2159 9.1204 12.5356 10.7975 12.5356 12.8663Z" fill="#F0FDF9"/>
<path d="M16.2887 13.4136C13.5152 15.5974 12.5356 16.6377 12.5356 18.7065C12.5356 20.7753 14.2159 22.4524 16.2887 22.4524C18.3614 22.4524 20.0417 20.7753 20.0417 18.7065C20.0417 16.6377 19.035 15.5974 16.2887 13.4136Z" fill="#5FE9D0"/>
<path fill-rule="evenodd" clip-rule="evenodd" d="M16.292 11.997L15.5998 12.5421C14.2256 13.6241 13.1724 14.5137 12.4805 15.4395C11.7352 16.4369 11.4234 17.451 11.4234 18.7065C11.4234 21.3883 13.6016 23.5624 16.2886 23.5624C18.9757 23.5624 21.1539 21.3883 21.1539 18.7065C21.1539 17.4449 20.8318 16.431 20.0848 15.4371C19.3914 14.5145 18.3402 13.6257 16.9817 12.5454L16.292 11.997ZM12.5356 18.7065C12.5356 16.6377 13.5152 15.5974 16.2887 13.4136C19.035 15.5974 20.0417 16.6377 20.0417 18.7065C20.0417 20.7753 18.3614 22.4524 16.2887 22.4524C14.2159 22.4524 12.5356 20.7753 12.5356 18.7065Z" fill="#F0FDF9"/>
<path d="M13.6573 15.8315C16.0442 13.0691 18.1771 12.1611 19.3631 12.1611C21.4342 12.2444 23.0455 13.9876 22.9621 16.0547C22.8786 18.1218 21.1321 19.73 19.061 19.6468C18.1595 19.6105 16.2981 18.4545 13.6573 15.8315Z" fill="url(#paint2_linear_173_21581)"/>
<path fill-rule="evenodd" clip-rule="evenodd" d="M12.1388 15.8893L12.8151 15.1066C15.2954 12.236 17.7087 11.0511 19.3631 11.0511L19.3855 11.0511L19.4078 11.052C22.0927 11.1599 24.1815 13.4197 24.0733 16.0994C23.9652 18.7791 21.701 20.8638 19.0162 20.7559C18.5898 20.7388 18.1559 20.5989 17.7498 20.4158C17.3307 20.2269 16.8729 19.9603 16.3825 19.6247C15.4014 18.9534 14.2235 17.9599 12.8728 16.6183L12.1388 15.8893ZM19.3631 12.1611C18.1771 12.1611 16.0442 13.0691 13.6573 15.8315C16.2981 18.4545 18.1595 19.6105 19.061 19.6468C21.1321 19.73 22.8786 18.1218 22.9621 16.0547C23.0455 13.9876 21.4342 12.2444 19.3631 12.1611Z" fill="#F0FDF9"/>
<path d="M16.2887 18.1592L15.8345 18.756L16.296 19.1073L16.7521 18.7489L16.2887 18.1592ZM16.2887 13.4136L16.7555 12.8265L16.2909 12.4572L15.8247 12.8243L16.2887 13.4136ZM13.6573 15.8315L13.0898 15.3412L12.6324 15.8706L13.1288 16.3636L13.6573 15.8315ZM19.3631 12.1611L19.3932 11.4117L19.3782 11.4111H19.3631V12.1611ZM19.061 19.6468L19.0911 18.8974L19.061 19.6468ZM13.5465 11.1766C11.063 11.0768 8.96609 13.0056 8.86591 15.4878L10.3647 15.5483C10.4314 13.8964 11.8277 12.6087 13.4863 12.6754L13.5465 11.1766ZM8.86591 15.4878C8.76572 17.9702 10.7005 20.0612 13.1841 20.1611L13.2444 18.6623C11.5859 18.5956 10.298 17.2002 10.3647 15.5483L8.86591 15.4878ZM16.7429 17.5624C15.3739 16.5204 14.5145 15.7705 13.9884 15.0609C13.4933 14.393 13.2856 13.749 13.2856 12.8663H11.7856C11.7856 14.0523 12.0861 15.0134 12.7834 15.9541C13.4497 16.853 14.4669 17.7152 15.8345 18.756L16.7429 17.5624ZM13.2856 12.8663C13.2856 11.213 14.6288 9.8704 16.2887 9.8704V8.3704C13.8031 8.3704 11.7856 10.3819 11.7856 12.8663H13.2856ZM16.2887 9.8704C17.9486 9.8704 19.2918 11.2131 19.2918 12.8663H20.7918C20.7918 10.3819 18.7743 8.3704 16.2887 8.3704V9.8704ZM19.2918 12.8663C19.2918 13.7408 19.0769 14.377 18.5743 15.0453C18.0389 15.757 17.1761 16.508 15.8253 17.5695L16.7521 18.7489C18.0904 17.6973 19.104 16.8363 19.773 15.947C20.4746 15.0143 20.7918 14.0605 20.7918 12.8663H19.2918ZM15.8247 12.8243C14.4464 13.9096 13.4306 14.772 12.7713 15.6542C12.0758 16.5849 11.7856 17.5224 11.7856 18.7065H13.2856C13.2856 17.8219 13.4851 17.2048 13.9728 16.5521C14.4967 15.8511 15.3574 15.1014 16.7526 14.0028L15.8247 12.8243ZM11.7856 18.7065C11.7856 21.1909 13.803 23.2024 16.2887 23.2024V21.7024C14.6287 21.7024 13.2856 20.3597 13.2856 18.7065H11.7856ZM16.2887 23.2024C18.7743 23.2024 20.7917 21.1909 20.7917 18.7065H19.2917C19.2917 20.3597 17.9486 21.7024 16.2887 21.7024V23.2024ZM20.7917 18.7065C20.7917 17.5182 20.4923 16.5809 19.7946 15.6526C19.1332 14.7725 18.1187 13.9106 16.7555 12.8265L15.8219 14.0006C17.2049 15.1004 18.067 15.8505 18.5955 16.5538C19.0878 17.2088 19.2917 17.826 19.2917 18.7065H20.7917ZM14.2248 16.3219C16.5484 13.6327 18.4924 12.9111 19.3631 12.9111V11.4111C17.8618 11.4111 15.5399 12.5056 13.0898 15.3412L14.2248 16.3219ZM19.333 12.9105C20.9915 12.9772 22.2793 14.3726 22.2127 16.0245L23.7115 16.0849C23.8116 13.6026 21.8769 11.5116 19.3932 11.4117L19.333 12.9105ZM22.2127 16.0245C22.146 17.6764 20.7497 18.9641 19.0911 18.8974L19.0308 20.3962C21.5144 20.496 23.6113 18.5672 23.7115 16.0849L22.2127 16.0245ZM19.0911 18.8974C19.001 18.8937 18.8156 18.8556 18.516 18.7205C18.225 18.5893 17.8644 18.3841 17.4349 18.0902C16.576 17.5025 15.4858 16.5906 14.1859 15.2994L13.1288 16.3636C14.4696 17.6954 15.6305 18.6731 16.5878 19.3281C17.0664 19.6556 17.5053 19.9102 17.8994 20.0879C18.2848 20.2617 18.6702 20.3817 19.0308 20.3962L19.0911 18.8974ZM7.36345 20.8193L5.88386 20.5727L7.36345 20.8193ZM7.41356 20.4265L8.91356 20.4263L7.41356 20.4265ZM7.23118 19.7606L5.84142 20.325L7.23118 19.7606ZM7.38666 20.1836L5.92298 20.5117L7.38666 20.1836ZM7.72751 25.7954L7.97411 27.275L7.97411 27.275L7.72751 25.7954ZM6.95687 25.8347L7.54815 24.4562L6.95687 25.8347ZM6.70459 24.7725L8.18418 25.0191V25.0191L6.70459 24.7725ZM6.66529 25.5431L8.04384 24.9519L6.66529 25.5431ZM12.7394 25.2688L12.175 26.6586L12.7394 25.2688ZM12.3164 25.1133L11.9883 26.577L12.3164 25.1133ZM11.6807 25.1365L11.4341 23.657H11.4341L11.6807 25.1365ZM12.0735 25.0864L12.0733 26.5864L12.0735 25.0864ZM18.9643 15.8062L19.9961 16.895L21.0895 15.8588L20.0487 14.7698L18.9643 15.8062ZM19.769 15.04L18.6846 16.0764H18.6846L19.769 15.04ZM20.5385 15.8451L21.5703 16.9338L22.6636 15.8977L21.6229 14.8087L20.5385 15.8451ZM16.5381 12.2334L15.6833 13.466L16.5381 12.2334ZM13.7854 10.849L13.4232 12.3046L13.4232 12.3046L13.7854 10.849ZM13.6749 10.8215L14.0372 9.36586L13.8884 9.32884L13.7352 9.32268L13.6749 10.8215ZM13.5611 10.8169L13.6214 9.3181H13.6214L13.5611 10.8169ZM13.1695 20.5208L13.1092 22.0196H13.1092L13.1695 20.5208ZM13.1919 20.5217L13.1316 22.0205L13.1617 22.0217H13.1919V20.5217ZM13.2143 20.5217V19.0217V20.5217ZM16.3965 19.4389L17.226 20.6887H17.226L16.3965 19.4389ZM19.7301 16.6112L20.7619 17.6999L19.7301 16.6112ZM18.153 16.5656L19.1694 17.6688H19.1694L18.153 16.5656ZM18.1781 15.0206L19.213 13.9348L19.213 13.9348L18.1781 15.0206ZM15.6143 19.0419L14.7059 20.2355L14.7059 20.2355L15.6143 19.0419ZM16.2996 19.5634L15.3911 20.7571L16.3142 21.4596L17.2264 20.7429L16.2996 19.5634ZM12.4918 16.1677L13.6969 15.2745L13.6969 15.2745L12.4918 16.1677ZM11.4234 12.8663H9.92342H11.4234ZM16.2887 8.01037V9.51037V8.01037ZM21.1539 12.8663H19.6539H21.1539ZM20.063 16.1626L18.8643 15.2609L20.063 16.1626ZM16.9767 19.0314L17.9035 20.2108L17.9035 20.2108L16.9767 19.0314ZM15.5998 12.5421L14.6718 11.3636V11.3636L15.5998 12.5421ZM16.292 11.997L17.2256 10.8229L16.2966 10.0842L15.3641 10.8185L16.292 11.997ZM12.4805 15.4395L11.279 14.5416L12.4805 15.4395ZM11.4234 18.7065H9.92339H11.4234ZM16.2886 23.5624V25.0624V23.5624ZM20.0848 15.4371L18.8857 16.3383L20.0848 15.4371ZM16.9817 12.5454L16.0481 13.7194L16.0481 13.7194L16.9817 12.5454ZM12.8151 15.1066L11.6801 14.1259L12.8151 15.1066ZM12.1388 15.8893L11.0038 14.9086L10.0889 15.9674L11.0817 16.9535L12.1388 15.8893ZM19.3631 11.0511L19.3631 12.5511H19.3631L19.3631 11.0511ZM19.3855 11.0511L19.4457 9.55229L19.4156 9.55108L19.3854 9.55108L19.3855 11.0511ZM19.4078 11.052L19.4681 9.55319L19.4681 9.55319L19.4078 11.052ZM19.0162 20.7559L19.0765 19.2571L19.0162 20.7559ZM17.7498 20.4158L18.3664 19.0484L17.7498 20.4158ZM16.3825 19.6247L15.5354 20.8626L16.3825 19.6247ZM12.8728 16.6183L13.9299 15.5541H13.9299L12.8728 16.6183ZM16.5 27.5C22.8513 27.5 28 22.3513 28 16H25C25 20.6944 21.1944 24.5 16.5 24.5V27.5ZM12.175 26.6586C13.5121 27.2016 14.9731 27.5 16.5 27.5V24.5C15.3666 24.5 14.2885 24.279 13.3039 23.8791L12.175 26.6586ZM7.97411 27.275L11.9273 26.6161L11.4341 23.657L7.48091 24.3158L7.97411 27.275ZM5.88386 20.5727L5.22499 24.5259L8.18418 25.0191L8.84304 21.0659L5.88386 20.5727ZM5 16C5 17.5269 5.29838 18.9879 5.84142 20.325L8.62094 19.1961C8.22103 18.2115 8 17.1334 8 16H5ZM16.5 4.5C10.1487 4.5 5 9.64873 5 16H8C8 11.3056 11.8056 7.5 16.5 7.5V4.5ZM28 16C28 9.64873 22.8513 4.5 16.5 4.5V7.5C21.1944 7.5 25 11.3056 25 16H28ZM8.84304 21.0659C8.86741 20.9197 8.91359 20.6728 8.91356 20.4263L5.91356 20.4267C5.91356 20.3794 5.91823 20.3542 5.91463 20.3808C5.9128 20.3943 5.90973 20.415 5.90434 20.4485C5.89893 20.4822 5.89243 20.5213 5.88386 20.5727L8.84304 21.0659ZM5.84142 20.325C5.8644 20.3816 5.88257 20.4263 5.89809 20.4651C5.91363 20.5039 5.92387 20.5302 5.93096 20.5491C5.94717 20.5922 5.93539 20.5671 5.92298 20.5117L8.85034 19.8556C8.79586 19.6125 8.6856 19.3554 8.62094 19.1961L5.84142 20.325ZM8.91356 20.4263C8.91354 20.226 8.89416 20.051 8.85034 19.8556L5.92298 20.5117C5.92371 20.515 5.91973 20.4976 5.91661 20.4694C5.91348 20.4412 5.91356 20.4234 5.91356 20.4267L8.91356 20.4263ZM7.48091 24.3158C7.37373 24.3337 7.29684 24.3465 7.23208 24.3561C7.16684 24.3659 7.13846 24.3686 7.13018 24.3693C7.12137 24.3699 7.16248 24.3659 7.23221 24.3729C7.30853 24.3805 7.42081 24.4015 7.54815 24.4562L6.3656 27.2133C6.76858 27.3861 7.14348 27.3768 7.35598 27.3608C7.56138 27.3453 7.79504 27.3049 7.97411 27.275L7.48091 24.3158ZM5.22499 24.5259C5.19515 24.705 5.15475 24.9386 5.13924 25.144C5.1232 25.3565 5.1139 25.7314 5.28674 26.1344L8.04384 24.9519C8.09845 25.0792 8.11945 25.1915 8.12713 25.2678C8.13413 25.3375 8.13007 25.3786 8.13073 25.3698C8.13136 25.3615 8.13414 25.3332 8.14388 25.2679C8.15354 25.2032 8.16631 25.1263 8.18418 25.0191L5.22499 24.5259ZM7.54815 24.4562C7.77085 24.5517 7.94832 24.7292 8.04384 24.9519L5.28674 26.1344C5.49464 26.6191 5.88089 27.0054 6.3656 27.2133L7.54815 24.4562ZM13.3039 23.8791C13.1446 23.8144 12.8875 23.7041 12.6444 23.6497L11.9883 26.577C11.9329 26.5646 11.9078 26.5528 11.9509 26.569C11.9698 26.5761 11.9961 26.5864 12.0349 26.6019C12.0737 26.6174 12.1184 26.6356 12.175 26.6586L13.3039 23.8791ZM11.9273 26.6161C11.9787 26.6076 12.0178 26.6011 12.0515 26.5957C12.085 26.5903 12.1057 26.5872 12.1192 26.5854C12.1458 26.5818 12.1206 26.5864 12.0733 26.5864L12.0737 23.5864C11.8273 23.5864 11.5803 23.6326 11.4341 23.657L11.9273 26.6161ZM12.6444 23.6497C12.449 23.6058 12.274 23.5865 12.0737 23.5864L12.0733 26.5864C12.0766 26.5864 12.0588 26.5865 12.0306 26.5834C12.0024 26.5803 11.985 26.5763 11.9883 26.577L12.6444 23.6497ZM20.0487 14.7698C18.9209 13.5898 17.7912 12.6288 16.7583 11.9124C15.7505 11.2134 14.7482 10.6868 13.8786 10.4704L13.1542 13.3816C13.5174 13.472 14.1735 13.7706 15.0486 14.3775C15.8987 14.9671 16.8765 15.7927 17.8799 16.8426L20.0487 14.7698ZM13.2143 20.9117C14.4644 20.9117 15.5513 20.4671 16.6102 19.7643C17.6359 19.0836 18.7288 18.096 19.9961 16.895L17.9325 14.7174C16.6516 15.9313 15.7321 16.7465 14.9512 17.2647C14.2036 17.761 13.6896 17.9117 13.2143 17.9117V20.9117ZM18.6846 16.0764L19.4541 16.8815L21.6229 14.8087L20.8534 14.0036L18.6846 16.0764ZM15.6833 13.466C16.6011 14.1025 17.6352 14.9784 18.6846 16.0764L20.8534 14.0036C19.6796 12.7755 18.4937 11.7642 17.393 11.0008L15.6833 13.466ZM13.4232 12.3046C13.9746 12.4418 14.7592 12.8251 15.6833 13.466L17.393 11.0008C16.3357 10.2676 15.2051 9.6565 14.1477 9.39336L13.4232 12.3046ZM13.3127 12.2771L13.4232 12.3046L14.1477 9.39336L14.0372 9.36586L13.3127 12.2771ZM13.5009 12.3157L13.6147 12.3203L13.7352 9.32268L13.6214 9.3181L13.5009 12.3157ZM10.0028 15.5339C10.0774 13.6846 11.641 12.2409 13.5009 12.3157L13.6214 9.3181C10.1116 9.17699 7.1469 11.9029 7.00524 15.4129L10.0028 15.5339ZM13.2298 19.022C11.3701 18.9473 9.92817 17.383 10.0028 15.5339L7.00524 15.4129C6.86357 18.9231 9.59928 21.8785 13.1092 22.0196L13.2298 19.022ZM13.2521 19.0229L13.2298 19.022L13.1092 22.0196L13.1316 22.0205L13.2521 19.0229ZM13.2143 19.0217H13.1919V22.0217H13.2143V19.0217ZM15.5671 18.1891C14.7037 18.7621 13.9771 19.0217 13.2143 19.0217V22.0217C14.7525 22.0217 16.0521 21.4678 17.226 20.6887L15.5671 18.1891ZM18.6983 15.5224C17.4228 16.7312 16.4389 17.6105 15.5671 18.1891L17.226 20.6887C18.3423 19.9478 19.4992 18.8965 20.7619 17.6999L18.6983 15.5224ZM19.5067 14.7563L18.6983 15.5224L20.7619 17.6999L21.5703 16.9338L19.5067 14.7563ZM19.1694 17.6688C19.4345 17.4245 19.7098 17.1663 19.9961 16.895L17.9325 14.7174C17.6528 14.9825 17.3883 15.2306 17.1367 15.4624L19.1694 17.6688ZM13.2143 20.9117C15.4094 20.9117 17.1514 19.528 19.1694 17.6688L17.1367 15.4624C15.0186 17.4138 14.0866 17.9117 13.2143 17.9117V20.9117ZM19.213 13.9348C17.3039 12.1151 15.3393 10.8339 13.8786 10.4704L13.1542 13.3816C13.8545 13.5559 15.3584 14.4052 17.1431 16.1064L19.213 13.9348ZM20.0487 14.7698C19.7694 14.4776 19.4903 14.1991 19.213 13.9348L17.1431 16.1064C17.3864 16.3383 17.6326 16.5838 17.8799 16.8426L20.0487 14.7698ZM14.7059 20.2355L15.3911 20.7571L17.208 18.3698L16.5227 17.8483L14.7059 20.2355ZM11.2868 17.061C12.1269 18.1943 13.3393 19.1955 14.7059 20.2355L16.5227 17.8483C15.1548 16.8072 14.2569 16.03 13.6969 15.2745L11.2868 17.061ZM9.92342 12.8663C9.92342 14.4278 10.3387 15.7819 11.2868 17.061L13.6969 15.2745C13.1533 14.5412 12.9234 13.8215 12.9234 12.8663H9.92342ZM16.2887 6.51037C12.776 6.51037 9.92342 9.35328 9.92342 12.8663H12.9234C12.9234 11.0156 14.4274 9.51037 16.2887 9.51037V6.51037ZM22.6539 12.8663C22.6539 9.35328 19.8014 6.51037 16.2887 6.51037V9.51037C18.15 9.51037 19.6539 11.0156 19.6539 12.8663H22.6539ZM21.2618 17.0643C22.21 15.8036 22.6539 14.4563 22.6539 12.8663H19.6539C19.6539 13.8171 19.4147 14.5292 18.8643 15.2609L21.2618 17.0643ZM17.9035 20.2108C19.2272 19.1706 20.4273 18.1736 21.2618 17.0643L18.8643 15.2609C18.2966 16.0156 17.3968 16.7936 16.0499 17.8519L17.9035 20.2108ZM17.2264 20.7429L17.9035 20.2108L16.0499 17.8519L15.3728 18.384L17.2264 20.7429ZM16.5278 13.7206L17.22 13.1755L15.3641 10.8185L14.6718 11.3636L16.5278 13.7206ZM13.6821 16.3374C14.2388 15.5924 15.1376 14.8152 16.5278 13.7206L14.6718 11.3636C13.3136 12.4331 12.1059 13.435 11.279 14.5416L13.6821 16.3374ZM12.9234 18.7065C12.9234 17.7503 13.1447 17.0566 13.6821 16.3374L11.279 14.5416C10.3258 15.8171 9.92339 17.1517 9.92339 18.7065H12.9234ZM16.2886 22.0624C14.4273 22.0624 12.9234 20.5572 12.9234 18.7065H9.92339C9.92339 22.2195 12.7759 25.0624 16.2886 25.0624V22.0624ZM19.6539 18.7065C19.6539 20.5572 18.1499 22.0624 16.2886 22.0624V25.0624C19.8014 25.0624 22.6539 22.2195 22.6539 18.7065H19.6539ZM18.8857 16.3383C19.4271 17.0587 19.6539 17.7525 19.6539 18.7065H22.6539C22.6539 17.1373 22.2364 15.8033 21.2839 14.5359L18.8857 16.3383ZM16.0481 13.7194C17.4254 14.8146 18.3249 15.5922 18.8857 16.3383L21.2839 14.5359C20.4579 13.4369 19.2551 12.4367 17.9153 11.3713L16.0481 13.7194ZM15.3585 13.1711L16.0481 13.7194L17.9153 11.3713L17.2256 10.8229L15.3585 13.1711ZM11.6801 14.1259L11.0038 14.9086L13.2738 16.87L13.9501 16.0873L11.6801 14.1259ZM19.3631 9.55108C17.0772 9.55108 14.2859 11.11 11.6801 14.1259L13.9501 16.0873C16.3048 13.3621 18.3401 12.5511 19.3631 12.5511L19.3631 9.55108ZM19.3854 9.55108L19.3631 9.55108L19.3631 12.5511L19.3855 12.5511L19.3854 9.55108ZM19.4681 9.55319L19.4457 9.55229L19.3252 12.5499L19.3476 12.5508L19.4681 9.55319ZM25.5721 16.1599C25.7138 12.6497 22.9781 9.6943 19.4681 9.55319L19.3476 12.5508C21.2073 12.6255 22.6492 14.1898 22.5746 16.0389L25.5721 16.1599ZM18.9559 22.2547C22.4657 22.3958 25.4304 19.6699 25.5721 16.1599L22.5746 16.0389C22.4999 17.8882 20.9363 19.3319 19.0765 19.2571L18.9559 22.2547ZM17.1332 21.7832C17.6255 22.0052 18.2593 22.2267 18.9559 22.2547L19.0765 19.2571C18.9204 19.2508 18.6864 19.1927 18.3664 19.0484L17.1332 21.7832ZM15.5354 20.8626C16.0749 21.2318 16.6111 21.5478 17.1332 21.7832L18.3664 19.0484C18.0504 18.9059 17.6709 18.6888 17.2296 18.3868L15.5354 20.8626ZM11.8157 17.6826C13.2073 19.0648 14.4559 20.124 15.5354 20.8626L17.2296 18.3868C16.3469 17.7828 15.2396 16.8551 13.9299 15.5541L11.8157 17.6826ZM11.0817 16.9535L11.8157 17.6826L13.9299 15.5541L13.1959 14.825L11.0817 16.9535Z" fill="#2ED3B7" mask="url(#path-2-outside-1_173_21581)"/>
<rect x="0.6" y="0.1" width="31.8" height="31.8" rx="7.9" stroke="#D0D5DD" stroke-width="0.2"/>
<defs>
<linearGradient id="paint0_linear_173_21581" x1="0.499502" y1="31.9998" x2="32.4996" y2="-0.000389615" gradientUnits="userSpaceOnUse">
<stop stop-color="#134E48"/>
<stop offset="1" stop-color="#0E9384"/>
</linearGradient>
<linearGradient id="paint1_linear_173_21581" x1="31.9439" y1="1.41106" x2="16.5426" y2="26.0267" gradientUnits="userSpaceOnUse">
<stop offset="0.205139" stop-color="#F6FEFC" stop-opacity="0.88"/>
<stop offset="1" stop-color="#F6FEFC"/>
</linearGradient>
<linearGradient id="paint2_linear_173_21581" x1="6.49969" y1="25.9999" x2="26.4998" y2="5.99976" gradientUnits="userSpaceOnUse">
<stop stop-color="#134E48"/>
<stop offset="1" stop-color="#0E9384"/>
</linearGradient>
</defs>
</svg>
