<svg width="24" height="24" viewBox="0 0 24 24" fill="lightgray" xmlns="http://www.w3.org/2000/svg">
<rect width="24" height="24" rx="4" fill="#D0D5DD"/>
<g clip-path="url(#clip0_9882_342066)">
<path d="M10.9995 13L17.9995 6.00002M11.0846 13.2187L12.8366 17.7241C12.991 18.121 13.0682 18.3194 13.1794 18.3774C13.2758 18.4276 13.3906 18.4276 13.4871 18.3775C13.5983 18.3197 13.6757 18.1214 13.8306 17.7247L18.2241 6.46616C18.3639 6.10804 18.4337 5.92898 18.3955 5.81456C18.3623 5.71519 18.2844 5.63721 18.185 5.60402C18.0706 5.56579 17.8915 5.63567 17.5334 5.77542L6.27489 10.169C5.87817 10.3238 5.67981 10.4012 5.62201 10.5125C5.5719 10.6089 5.57196 10.7238 5.62219 10.8202C5.68013 10.9314 5.87858 11.0085 6.27547 11.1629L10.7808 12.915C10.8614 12.9463 10.9017 12.962 10.9356 12.9862C10.9656 13.0076 10.9919 13.0339 11.0134 13.064C11.0376 13.0979 11.0532 13.1382 11.0846 13.2187Z" stroke="#125D56" stroke-width="1.66667" stroke-linecap="round" stroke-linejoin="round"/>
</g>
<defs>
<clipPath id="clip0_9882_342066">
<rect width="16" height="16" fill="white" transform="translate(4 4)"/>
</clipPath>
</defs>
</svg>
