<svg width="52" height="52" viewBox="0 0 52 52" fill="none" xmlns="http://www.w3.org/2000/svg">
<rect x="2" y="2" width="48" height="48" rx="8" fill="#0E9384"/>
<path d="M39.5002 24.714C41.2753 24.714 42.7142 23.2751 42.7142 21.5C42.7142 19.725 41.2751 18.286 39.5001 18.286C37.7249 18.286 36.2856 19.7251 36.2856 21.5003V24.714H39.5002ZM30.4999 24.714C32.2751 24.714 33.7142 23.2749 33.7142 21.4997V12.5003C33.7142 10.7251 32.2751 9.28601 30.4999 9.28601C28.7247 9.28601 27.2856 10.7251 27.2856 12.5003V21.4997C27.2856 23.2749 28.7247 24.714 30.4999 24.714Z" fill="#2EB67D"/>
<path d="M12.4998 27.2861C10.7247 27.2861 9.28579 28.7251 9.28579 30.5001C9.28579 32.2751 10.7249 33.7141 12.4999 33.7141C14.2751 33.7141 15.7144 32.275 15.7144 30.4998V27.2861H12.4998ZM21.5001 27.2861C19.7249 27.2861 18.2858 28.7252 18.2858 30.5004V39.4998C18.2858 41.275 19.7249 42.7141 21.5001 42.7141C23.2753 42.7141 24.7144 41.275 24.7144 39.4998V30.5004C24.7144 28.7252 23.2753 27.2861 21.5001 27.2861Z" fill="#E01E5A"/>
<path d="M27.2858 39.5003C27.2858 41.2754 28.7248 42.7143 30.4999 42.7143C32.2749 42.7143 33.7139 41.2752 33.7139 39.5002C33.7139 37.725 32.2748 36.2858 30.4996 36.2858L27.2858 36.2858L27.2858 39.5003ZM27.2858 30.5001C27.2858 32.2753 28.7249 33.7143 30.5001 33.7143L39.4996 33.7143C41.2748 33.7143 42.7139 32.2753 42.7139 30.5001C42.7139 28.7249 41.2748 27.2858 39.4996 27.2858L30.5001 27.2858C28.7249 27.2858 27.2858 28.7249 27.2858 30.5001Z" fill="#ECB22E"/>
<path d="M24.7137 12.4998C24.7137 10.7247 23.2747 9.28579 21.4997 9.28579C19.7246 9.28579 18.2856 10.7249 18.2856 12.4999C18.2856 14.2751 19.7247 15.7144 21.4999 15.7144L24.7137 15.7144L24.7137 12.4998ZM24.7137 21.5001C24.7137 19.7249 23.2746 18.2858 21.4994 18.2858L12.4999 18.2858C10.7247 18.2858 9.28564 19.7249 9.28564 21.5001C9.28564 23.2753 10.7247 24.7144 12.4999 24.7144L21.4994 24.7144C23.2746 24.7144 24.7137 23.2753 24.7137 21.5001Z" fill="#36C5F0"/>
<rect x="2" y="2" width="48" height="48" rx="8" stroke="#107569" stroke-width="4"/>
</svg>
