<svg width="36" height="36" viewBox="0 0 36 36" fill="none" xmlns="http://www.w3.org/2000/svg">
<path d="M12.201 26.3334V22.1667M12.201 13.8334V9.66669M10.1177 11.75H14.2843M10.1177 24.25H14.2843M19.2843 10.5L17.8392 14.2574C17.6042 14.8684 17.4867 15.1739 17.304 15.4309C17.142 15.6587 16.943 15.8577 16.7152 16.0196C16.4583 16.2024 16.1528 16.3199 15.5417 16.5549L11.7843 18L15.5417 19.4452C16.1528 19.6802 16.4583 19.7977 16.7152 19.9804C16.943 20.1424 17.142 20.3414 17.304 20.5691C17.4867 20.8261 17.6042 21.1316 17.8392 21.7426L19.2843 25.5L20.7295 21.7426C20.9645 21.1316 21.082 20.8261 21.2647 20.5691C21.4267 20.3414 21.6257 20.1424 21.8534 19.9804C22.1104 19.7977 22.4159 19.6802 23.027 19.4452L26.7843 18L23.027 16.5549C22.4159 16.3199 22.1104 16.2024 21.8534 16.0196C21.6257 15.8577 21.4267 15.6587 21.2647 15.4309C21.082 15.1739 20.9645 14.8684 20.7295 14.2574L19.2843 10.5Z" stroke="#107569" stroke-width="2" stroke-linecap="round" stroke-linejoin="round"/>
</svg>
