<svg width="32" height="32" viewBox="0 0 32 32" fill="none" xmlns="http://www.w3.org/2000/svg">
<rect width="32" height="32" rx="16" fill="#F2F4F7"/>
<g clip-path="url(#clip0_173_21642)">
<path d="M12.0629 15.4859C12.0215 15.2188 12 14.9452 12 14.6667C12 11.7211 14.4035 9.33333 17.3684 9.33333C20.3333 9.33333 22.7368 11.7211 22.7368 14.6667C22.7368 15.332 22.6142 15.969 22.3901 16.5563C22.3436 16.6783 22.3203 16.7393 22.3097 16.7869C22.2993 16.8341 22.2952 16.8673 22.2941 16.9156C22.2929 16.9644 22.2995 17.0181 22.3128 17.1255L22.5812 19.3057C22.6102 19.5417 22.6247 19.6597 22.5855 19.7455C22.5511 19.8206 22.49 19.8803 22.4141 19.913C22.3274 19.9503 22.2097 19.933 21.9745 19.8985L19.851 19.5873C19.7401 19.571 19.6846 19.5629 19.6342 19.5632C19.5842 19.5635 19.5496 19.5671 19.5008 19.5774C19.4514 19.5878 19.3882 19.6115 19.262 19.6587C18.6731 19.8793 18.0349 20 17.3684 20C17.0896 20 16.8158 19.9789 16.5484 19.9382M13.0877 22.6667C15.0643 22.6667 16.6667 21.025 16.6667 19C16.6667 16.975 15.0643 15.3333 13.0877 15.3333C11.1111 15.3333 9.50877 16.975 9.50877 19C9.50877 19.4071 9.57351 19.7986 9.69303 20.1645C9.74355 20.3191 9.76881 20.3965 9.7771 20.4493C9.78575 20.5044 9.78727 20.5354 9.78405 20.5911C9.78096 20.6445 9.7676 20.7049 9.74089 20.8255L9.33333 22.6667L11.3299 22.394C11.4388 22.3791 11.4933 22.3717 11.5409 22.372C11.591 22.3723 11.6176 22.375 11.6667 22.3848C11.7134 22.3941 11.7828 22.4186 11.9215 22.4676C12.2871 22.5966 12.6794 22.6667 13.0877 22.6667Z" stroke="#475467" stroke-width="1.66667" stroke-linecap="round" stroke-linejoin="round"/>
</g>
<defs>
<clipPath id="clip0_173_21642">
<rect width="16" height="16" fill="white" transform="translate(8 8)"/>
</clipPath>
</defs>
</svg>
