<svg width="13" height="12" viewBox="0 0 13 12" fill="none" xmlns="http://www.w3.org/2000/svg">
<g clip-path="url(#clip0_10051_295269)">
<path d="M2.29883 11V8.5M2.29883 3.5V1M1.04883 2.25H3.54883M1.04883 9.75H3.54883M6.54883 1.5L5.68174 3.75443C5.54073 4.12105 5.47023 4.30435 5.36059 4.45854C5.26342 4.5952 5.14403 4.71459 5.00737 4.81177C4.85318 4.9214 4.66987 4.99191 4.30326 5.13291L2.04883 6L4.30326 6.86709C4.66987 7.00809 4.85318 7.0786 5.00737 7.18823C5.14403 7.28541 5.26342 7.4048 5.36059 7.54146C5.47023 7.69565 5.54073 7.87895 5.68174 8.24557L6.54883 10.5L7.41592 8.24557C7.55692 7.87895 7.62743 7.69565 7.73706 7.54146C7.83423 7.4048 7.95363 7.28541 8.09029 7.18823C8.24447 7.0786 8.42778 7.00809 8.7944 6.86709L11.0488 6L8.7944 5.13291C8.42778 4.99191 8.24447 4.9214 8.09029 4.81176C7.95363 4.71459 7.83423 4.5952 7.73706 4.45854C7.62743 4.30435 7.55692 4.12105 7.41592 3.75443L6.54883 1.5Z" stroke="#6172F3" stroke-width="1.5" stroke-linecap="round" stroke-linejoin="round"/>
</g>
<defs>
<clipPath id="clip0_10051_295269">
<rect width="12" height="12" fill="white" transform="translate(0.0488281)"/>
</clipPath>
</defs>
</svg>
