<svg width="24" height="24" viewBox="0 0 24 24" fill="none" xmlns="http://www.w3.org/2000/svg">
<rect width="24" height="24" rx="12" fill="#F0FDF9"/>
<g clip-path="url(#clip0_9965_293874)">
<path d="M9.33301 13.3334C9.33301 13.3334 10.333 14.6667 11.9997 14.6667C13.6663 14.6667 14.6663 13.3334 14.6663 13.3334M13.9997 10H14.0063M9.99967 10H10.0063M18.6663 12C18.6663 15.6819 15.6816 18.6667 11.9997 18.6667C8.31778 18.6667 5.33301 15.6819 5.33301 12C5.33301 8.31814 8.31778 5.33337 11.9997 5.33337C15.6816 5.33337 18.6663 8.31814 18.6663 12ZM14.333 10C14.333 10.1841 14.1838 10.3334 13.9997 10.3334C13.8156 10.3334 13.6663 10.1841 13.6663 10C13.6663 9.81595 13.8156 9.66671 13.9997 9.66671C14.1838 9.66671 14.333 9.81595 14.333 10ZM10.333 10C10.333 10.1841 10.1838 10.3334 9.99967 10.3334C9.81558 10.3334 9.66634 10.1841 9.66634 10C9.66634 9.81595 9.81558 9.66671 9.99967 9.66671C10.1838 9.66671 10.333 9.81595 10.333 10Z" stroke="#344054" stroke-width="1.3" stroke-linecap="round" stroke-linejoin="round"/>
</g>
<defs>
<clipPath id="clip0_9965_293874">
<rect width="16" height="16" fill="white" transform="translate(4 4)"/>
</clipPath>
</defs>
</svg>
