<svg width="36" height="36" viewBox="0 0 36 36" fill="none" xmlns="http://www.w3.org/2000/svg">
<path d="M12.8813 24.1987C13.3882 23.0044 14.5718 22.1667 15.951 22.1667H20.951C22.3302 22.1667 23.5138 23.0044 24.0208 24.1987M21.7843 15.9167C21.7843 17.7576 20.292 19.25 18.451 19.25C16.6101 19.25 15.1177 17.7576 15.1177 15.9167C15.1177 14.0757 16.6101 12.5834 18.451 12.5834C20.292 12.5834 21.7843 14.0757 21.7843 15.9167ZM26.7843 18C26.7843 22.6024 23.0534 26.3334 18.451 26.3334C13.8486 26.3334 10.1177 22.6024 10.1177 18C10.1177 13.3976 13.8486 9.66669 18.451 9.66669C23.0534 9.66669 26.7843 13.3976 26.7843 18Z" stroke="#107569" stroke-width="2" stroke-linecap="round" stroke-linejoin="round"/>
</svg>
